<?xml version="1.0" ?><!-- Uploaded to: SVG Repo, www.svgrepo.com, Generator: SVG Repo Mixer Tools -->
<svg fill="#000000" width="38" height="38" viewBox="0 0 32 32" id="Camada_1" version="1.1" xml:space="preserve" xmlns="http://www.w3.org/2000/svg" xmlns:xlink="http://www.w3.org/1999/xlink"><style type="text/css">
	.st0{fill-rule:evenodd;clip-rule:evenodd;}
</style><path class="st0" d="M13.6,6.6l0.9-3.1c0.5-1.6,2.8-1.6,3.3,0l0.9,3.1C18,6.8,17.2,7,16.2,7S14.4,6.8,13.6,6.6z M10.9,16  c1.2,0.9,3,1.7,5.3,1.7c2.3,0,4.1-0.9,5.3-1.7l-1.4-4.8c-0.9,0.6-2.2,1-3.9,1s-3-0.5-3.9-1L10.9,16z M22.4,18.9l0.5,1.5  c-1.5,1.1-3.8,2.1-6.6,2.1c-2.9,0-5.1-1-6.6-2.1l0.5-1.5H7.9c-0.5,0-0.8,0.3-1,0.7L4.7,28c-0.2,0.6,0.3,1.3,1,1.3h21.1  c0.7,0,1.1-0.6,1-1.3l-2.3-8.4c-0.1-0.4-0.5-0.7-1-0.7H22.4z"/></svg>